PathFileType	4	(X/Y/Z)	Patient4_TMGait_0pt5_01_left_12.trc.trc
DataRate	CameraRate	NumFrames	NumMarkers	Units	OrigDataRate	OrigDataStartFrame	OrigNumFrames
76.502732240437	76.502732240437	4	33	mm	76.502732240437	106	       141
Frame#	Time	L.ASIS			Sacral			L.Shoulder			Chest			R.Shoulder			Neck			R.ASIS			R.Thigh.Superior			R.Thigh.Lateral			R.Thigh.Inferior			R.Patella			L.Thigh.Superior			L.Thigh.Lateral			L.Thigh.Inferior			L.Patella			L.Shank.Superior			L.Shank.Lateral			L.Shank.Inferior			R.Shank.Superior			R.Shank.Lateral			R.Shank.Inferior			R.Heel			R.Midfoot.Superior			R.Midfoot.Lateral			R.Toe			L.Heel			L.Midfoot.Lateral			L.Midfoot.Superior			L.Toe			L.Elbow			L.Wrist			R.Elbow			R.Wrist			
		X1	Y1	Z1	X2	Y2	Z2	X3	Y3	Z3	X4	Y4	Z4	X5	Y5	Z5	X6	Y6	Z6	X7	Y7	Z7	X8	Y8	Z8	X9	Y9	Z9	X10	Y10	Z10	X11	Y11	Z11	X12	Y12	Z12	X13	Y13	Z13	X14	Y14	Z14	X15	Y15	Z15	X16	Y16	Z16	X17	Y17	Z17	X18	Y18	Z18	X19	Y19	Z19	X20	Y20	Z20	X21	Y21	Z21	X22	Y22	Z22	X23	Y23	Z23	X24	Y24	Z24	X25	Y25	Z25	X26	Y26	Z26	X27	Y27	Z27	X28	Y28	Z28	X29	Y29	Z29	X30	Y30	Z30	X31	Y31	Z31	X32	Y32	Z32	X33	Y33	Z33	

106	17.412500000000	772.781972974357	964.196782426541	347.238548619820	568.266922759628	1006.395013196285	517.192637980611	713.234137974964	1436.811799322630	323.862655739290	833.194311613092	1370.953287821695	475.052994068145	763.508621604839	1440.479145169108	657.635493003468	725.691707005203	1498.704446219288	474.810558135921	803.501816683670	945.537853431295	619.885594988022	834.722777896671	740.670204354439	591.341923322501	748.635451879372	636.125112366903	652.240458461190	818.609749266730	580.821516736580	570.326125414550	813.534532564038	493.626790954085	575.107189970569	864.942795014758	786.946027023869	382.220237447787	825.844041548793	657.487705885559	308.196684943420	930.192850565230	600.783369838519	371.848165412209	951.474980223650	516.454371711420	366.614250978369	902.624941535169	442.284201136317	357.678616195395	780.735319488053	361.784174856518	307.656845372573	807.465665426556	234.350094529333	362.431968523836	786.681420936792	404.525378472766	581.529227070504	714.098030906016	300.146494016520	639.276783515256	758.230428241958	206.487335165325	576.656080301431	624.247137877607	42.302311797769	537.467364112186	793.369649620291	97.682381123266	584.250727457411	702.905879403136	35.985257375583	618.324118931996	911.266994079172	45.220992528561	619.642765990897	645.343911774356	114.849129714261	399.255598213743	713.680380972542	91.198628966164	318.362875100132	810.883240258497	129.903887072648	340.163771851408	918.255675144066	48.269926882071	310.812402438281	639.865979467995	1082.536369435659	228.440269186682	648.572642808031	823.349689665477	231.796128307803	839.074905492672	1107.996901260205	785.741099578176	1083.384731444332	1051.790603505148	734.244926363212	
107	17.425571428571	770.793982068433	964.605450022464	347.483066039867	567.411790711255	1006.886644472657	518.751848791622	711.732373373805	1436.863491902319	324.451060509940	832.704047209189	1370.909765146222	474.743112407325	764.591560941828	1440.828570753838	657.785803757275	725.393156137830	1498.818936676508	475.204438910071	802.833362883885	945.199902750767	619.888601948898	832.112805930038	740.008016406981	590.446771329361	746.016926736469	636.042684160678	652.427030237870	814.550324803667	580.390530085248	569.851041640780	808.936273658539	493.277446610734	574.883607350564	862.952905342118	787.537360195261	382.350291869232	823.828079369584	658.110748598553	308.172606704885	927.519873650513	601.441835118373	372.638725670984	950.211826170137	519.211488118067	367.248300866851	905.498992355266	444.439267706782	357.820490098881	789.877163675586	356.232636674685	306.717980196589	824.716587622201	230.558242115202	361.829556470141	781.689989353357	404.105411295612	581.362841728771	708.800672594135	299.988877126961	639.280053103285	752.318102060682	206.205866487010	576.523650267779	617.651000819403	42.233583788612	537.482931757761	786.746660761349	97.658038952613	584.200802498739	696.308190012597	35.977480243053	618.359491952880	904.626890720103	45.338423281251	619.659565386776	671.080961849810	99.915155873319	397.730667216189	741.395027492660	81.349222745978	317.223225065729	835.487329992564	126.630617842636	339.561667978949	948.455785436722	52.871732503221	310.857907568817	631.686295067696	1083.938288537358	230.423831050025	634.985831416392	824.738487969679	235.467907155191	847.624975071305	1111.026534400869	785.881592667150	1093.559842006931	1070.498644548916	729.964787933752	
108	17.438642857143	768.874810195505	964.943392795636	347.522837370362	566.683703740157	1007.300996639829	520.193115659822	710.320412869510	1436.927625339353	324.980606603161	832.276505585758	1370.809575222778	474.348751828906	765.720651226116	1441.058744468817	657.850211989572	725.166107385209	1498.888728429621	475.561758131547	802.249124492315	944.814664983462	619.704112208168	829.553616069156	739.317491156851	589.459016200391	743.446006605818	635.903902275180	652.526926859210	810.552433563513	579.907155884401	569.304896815005	804.390726666657	492.907307305319	574.599535159163	860.633066521811	787.623269682821	382.375507499195	821.329801644250	658.377932341993	307.922937312302	924.057102193202	601.477595745204	373.459672078837	948.069950837927	521.508220992024	367.939962112175	907.560569273596	446.429505016648	358.008868390971	798.906973684015	350.831726465612	305.530218429593	841.513494209913	227.503215711971	361.313819096867	776.725836852526	403.667552846736	581.142936311483	703.524504396034	299.830599804033	639.245004629576	746.402763819569	205.906503763809	576.362143080939	611.058552400687	42.162192432358	537.505377005472	780.108987616489	97.615101242352	584.120726532382	689.707057858912	35.968324145597	618.387784657276	897.985428226615	45.451044223524	619.666343824533	696.941498902057	86.327257431828	395.876742174606	769.264232139140	72.802237549678	316.112910515046	859.709173645626	124.463940500419	339.270477589676	977.835293470775	58.801038986115	311.882246979847	623.862973374759	1085.461198265587	232.301593727102	622.353466157449	826.339109220795	238.864526868318	855.987219657728	1114.006141604258	785.671094543366	1102.453630438749	1088.995716708341	725.363103026685	
109	17.451714285714	767.019977433479	965.221155824582	347.361504289370	566.077581250124	1007.651016043429	521.507748755538	709.017219336917	1437.010174810017	325.441705842228	831.916130874817	1370.659676577986	473.871034180451	766.887745164337	1441.181584688692	657.821841931671	725.025690121773	1498.920759697031	475.871101503771	801.751328325686	944.399429788877	619.347344782387	827.062411579012	738.596299585232	588.451542148337	740.880692520709	635.705410819910	652.535922217829	806.621339345410	579.361724574546	568.714780179839	799.899998640596	492.509619416533	574.261635178599	857.991614465969	787.268022579459	382.314859453583	818.434976268198	658.360509712404	307.435023215884	919.969884032468	601.008711433065	374.225710357422	945.199489108741	523.389947406315	368.625568534527	908.871428063685	448.285739339527	358.202443634118	807.671569546441	345.786461380237	304.169167746295	857.553086641697	225.317680959306	360.921159896626	771.785701359008	403.216815238157	580.873277953750	698.261296072676	299.680409349429	639.174495096770	740.481010429961	205.598384426640	576.177386968764	604.466629649348	42.091690449035	537.538421456211	773.458001871689	97.554818516149	584.014424451454	683.101623724967	35.957950175080	618.409879883877	891.343229879067	45.555880326737	619.665678268624	722.394912904493	74.437452810804	393.858404131635	796.701497166360	65.782626347270	315.150384053740	883.067402676452	123.504475361100	339.322679570116	1005.813864647441	65.981373096476	313.853462825967	616.493387852729	1087.070044740347	234.083760241406	610.696631016145	828.079476148343	241.962797277524	864.154392925584	1116.924478733346	785.097119067354	1110.100678617402	1107.115358708762	720.476470924967	
